<mxfile host="app.diagrams.net" agent="Mozilla/5.0 (Windows NT 10.0; Win64; x64) AppleWebKit/537.36 (KHTML, like Gecko) Chrome/138.0.0.0 Safari/537.36" version="28.0.4">
  <diagram name="Page-1" id="UGtGPEmLpTKZ-8MmzNQY">
    <mxGraphModel dx="227" dy="1414" grid="1" gridSize="10" guides="1" tooltips="1" connect="1" arrows="1" fold="1" page="1" pageScale="1" pageWidth="850" pageHeight="1100" math="0" shadow="0">
      <root>
        <mxCell id="0" />
        <mxCell id="1" parent="0" />
        <mxCell id="_ltqTdvM7BBoccv6LRy0-25" style="edgeStyle=orthogonalEdgeStyle;rounded=0;orthogonalLoop=1;jettySize=auto;html=1;entryX=0;entryY=0.5;entryDx=0;entryDy=0;" parent="1" source="_ltqTdvM7BBoccv6LRy0-4" target="_ltqTdvM7BBoccv6LRy0-7" edge="1">
          <mxGeometry relative="1" as="geometry" />
        </mxCell>
        <mxCell id="_ltqTdvM7BBoccv6LRy0-9" style="edgeStyle=orthogonalEdgeStyle;rounded=0;orthogonalLoop=1;jettySize=auto;html=1;entryX=0;entryY=0.25;entryDx=0;entryDy=0;exitX=0.5;exitY=1;exitDx=0;exitDy=0;" parent="1" source="_ltqTdvM7BBoccv6LRy0-1" target="_ltqTdvM7BBoccv6LRy0-38" edge="1">
          <mxGeometry relative="1" as="geometry">
            <mxPoint x="10" y="60.00000000000023" as="sourcePoint" />
            <mxPoint x="70.00000000000011" y="154.99999999999977" as="targetPoint" />
          </mxGeometry>
        </mxCell>
        <mxCell id="_ltqTdvM7BBoccv6LRy0-11" value="a,w" style="edgeLabel;html=1;align=center;verticalAlign=middle;resizable=0;points=[];" parent="_ltqTdvM7BBoccv6LRy0-9" vertex="1" connectable="0">
          <mxGeometry x="-0.3824" y="-4" relative="1" as="geometry">
            <mxPoint as="offset" />
          </mxGeometry>
        </mxCell>
        <mxCell id="_ltqTdvM7BBoccv6LRy0-1" value="MPU6050" style="rounded=0;whiteSpace=wrap;html=1;" parent="1" vertex="1">
          <mxGeometry x="100" y="40" width="120" height="60" as="geometry" />
        </mxCell>
        <mxCell id="_ltqTdvM7BBoccv6LRy0-10" style="edgeStyle=orthogonalEdgeStyle;rounded=0;orthogonalLoop=1;jettySize=auto;html=1;entryX=0;entryY=0.5;entryDx=0;entryDy=0;exitX=0.5;exitY=0;exitDx=0;exitDy=0;" parent="1" source="_ltqTdvM7BBoccv6LRy0-2" target="_ltqTdvM7BBoccv6LRy0-38" edge="1">
          <mxGeometry relative="1" as="geometry">
            <mxPoint x="90" y="330" as="sourcePoint" />
            <mxPoint x="150.0000000000001" y="219.99999999999977" as="targetPoint" />
          </mxGeometry>
        </mxCell>
        <mxCell id="_ltqTdvM7BBoccv6LRy0-12" value="left_image, right_image, pointcloud" style="edgeLabel;html=1;align=center;verticalAlign=middle;resizable=0;points=[];" parent="_ltqTdvM7BBoccv6LRy0-10" vertex="1" connectable="0">
          <mxGeometry x="-0.2894" y="1" relative="1" as="geometry">
            <mxPoint as="offset" />
          </mxGeometry>
        </mxCell>
        <mxCell id="_ltqTdvM7BBoccv6LRy0-16" style="edgeStyle=orthogonalEdgeStyle;rounded=0;orthogonalLoop=1;jettySize=auto;html=1;entryX=0;entryY=0.5;entryDx=0;entryDy=0;exitX=0.5;exitY=1;exitDx=0;exitDy=0;exitPerimeter=0;" parent="1" source="_ltqTdvM7BBoccv6LRy0-13" target="_ltqTdvM7BBoccv6LRy0-5" edge="1">
          <mxGeometry relative="1" as="geometry" />
        </mxCell>
        <mxCell id="_ltqTdvM7BBoccv6LRy0-17" value="Pointcloud" style="edgeLabel;html=1;align=center;verticalAlign=middle;resizable=0;points=[];" parent="_ltqTdvM7BBoccv6LRy0-16" vertex="1" connectable="0">
          <mxGeometry x="-0.2114" y="-3" relative="1" as="geometry">
            <mxPoint x="-164" y="7" as="offset" />
          </mxGeometry>
        </mxCell>
        <mxCell id="_ltqTdvM7BBoccv6LRy0-2" value="Oak-D Lite" style="rounded=0;whiteSpace=wrap;html=1;" parent="1" vertex="1">
          <mxGeometry x="80" y="330" width="120" height="60" as="geometry" />
        </mxCell>
        <mxCell id="_ltqTdvM7BBoccv6LRy0-34" style="edgeStyle=orthogonalEdgeStyle;rounded=0;orthogonalLoop=1;jettySize=auto;html=1;entryX=0.5;entryY=0;entryDx=0;entryDy=0;exitX=0.5;exitY=0;exitDx=0;exitDy=0;" parent="1" source="_ltqTdvM7BBoccv6LRy0-3" target="_ltqTdvM7BBoccv6LRy0-38" edge="1">
          <mxGeometry relative="1" as="geometry">
            <mxPoint x="260" y="140" as="targetPoint" />
            <mxPoint x="1080" y="50" as="sourcePoint" />
            <Array as="points">
              <mxPoint x="1080" y="-70" />
              <mxPoint x="285" y="-70" />
            </Array>
          </mxGeometry>
        </mxCell>
        <mxCell id="_ltqTdvM7BBoccv6LRy0-37" value="v_L_hat,v_R_hat" style="edgeLabel;html=1;align=center;verticalAlign=middle;resizable=0;points=[];" parent="_ltqTdvM7BBoccv6LRy0-34" vertex="1" connectable="0">
          <mxGeometry x="-0.861" y="-4" relative="1" as="geometry">
            <mxPoint as="offset" />
          </mxGeometry>
        </mxCell>
        <mxCell id="_ltqTdvM7BBoccv6LRy0-3" value="Motor Controller" style="rounded=0;whiteSpace=wrap;html=1;" parent="1" vertex="1">
          <mxGeometry x="1020" y="60" width="120" height="60" as="geometry" />
        </mxCell>
        <mxCell id="_ltqTdvM7BBoccv6LRy0-22" style="edgeStyle=orthogonalEdgeStyle;rounded=0;orthogonalLoop=1;jettySize=auto;html=1;" parent="1" source="_ltqTdvM7BBoccv6LRy0-4" target="_ltqTdvM7BBoccv6LRy0-6" edge="1">
          <mxGeometry relative="1" as="geometry" />
        </mxCell>
        <mxCell id="_ltqTdvM7BBoccv6LRy0-23" value="p,R,v,w" style="edgeLabel;html=1;align=center;verticalAlign=middle;resizable=0;points=[];" parent="_ltqTdvM7BBoccv6LRy0-22" vertex="1" connectable="0">
          <mxGeometry x="-0.3833" y="-1" relative="1" as="geometry">
            <mxPoint x="8" y="-1" as="offset" />
          </mxGeometry>
        </mxCell>
        <mxCell id="_ltqTdvM7BBoccv6LRy0-4" value="VI&lt;span style=&quot;background-color: transparent; color: light-dark(rgb(0, 0, 0), rgb(255, 255, 255));&quot;&gt;O EKF&lt;/span&gt;" style="rounded=0;whiteSpace=wrap;html=1;" parent="1" vertex="1">
          <mxGeometry x="460" y="180" width="130" height="60" as="geometry" />
        </mxCell>
        <mxCell id="_ltqTdvM7BBoccv6LRy0-18" style="edgeStyle=orthogonalEdgeStyle;rounded=0;orthogonalLoop=1;jettySize=auto;html=1;entryX=0.5;entryY=1;entryDx=0;entryDy=0;" parent="1" source="_ltqTdvM7BBoccv6LRy0-5" target="_ltqTdvM7BBoccv6LRy0-6" edge="1">
          <mxGeometry relative="1" as="geometry" />
        </mxCell>
        <mxCell id="_ltqTdvM7BBoccv6LRy0-20" value="Voxel map of surroundings" style="edgeLabel;html=1;align=center;verticalAlign=middle;resizable=0;points=[];" parent="_ltqTdvM7BBoccv6LRy0-18" vertex="1" connectable="0">
          <mxGeometry x="0.0636" relative="1" as="geometry">
            <mxPoint as="offset" />
          </mxGeometry>
        </mxCell>
        <mxCell id="_ltqTdvM7BBoccv6LRy0-5" value="Obstacle Detection" style="rounded=0;whiteSpace=wrap;html=1;" parent="1" vertex="1">
          <mxGeometry x="700" y="330" width="120" height="60" as="geometry" />
        </mxCell>
        <mxCell id="_ltqTdvM7BBoccv6LRy0-26" style="edgeStyle=orthogonalEdgeStyle;rounded=0;orthogonalLoop=1;jettySize=auto;html=1;entryX=0.5;entryY=1;entryDx=0;entryDy=0;" parent="1" source="_ltqTdvM7BBoccv6LRy0-6" target="_ltqTdvM7BBoccv6LRy0-7" edge="1">
          <mxGeometry relative="1" as="geometry" />
        </mxCell>
        <mxCell id="_ltqTdvM7BBoccv6LRy0-27" value="trajectory" style="edgeLabel;html=1;align=center;verticalAlign=middle;resizable=0;points=[];" parent="_ltqTdvM7BBoccv6LRy0-26" vertex="1" connectable="0">
          <mxGeometry x="0.0377" y="3" relative="1" as="geometry">
            <mxPoint as="offset" />
          </mxGeometry>
        </mxCell>
        <mxCell id="_ltqTdvM7BBoccv6LRy0-6" value="Local path planner" style="rounded=0;whiteSpace=wrap;html=1;" parent="1" vertex="1">
          <mxGeometry x="700" y="180" width="120" height="60" as="geometry" />
        </mxCell>
        <mxCell id="_ltqTdvM7BBoccv6LRy0-28" style="edgeStyle=orthogonalEdgeStyle;rounded=0;orthogonalLoop=1;jettySize=auto;html=1;entryX=0;entryY=0.5;entryDx=0;entryDy=0;" parent="1" source="_ltqTdvM7BBoccv6LRy0-7" target="_ltqTdvM7BBoccv6LRy0-8" edge="1">
          <mxGeometry relative="1" as="geometry" />
        </mxCell>
        <mxCell id="_ltqTdvM7BBoccv6LRy0-29" value="v,w" style="edgeLabel;html=1;align=center;verticalAlign=middle;resizable=0;points=[];" parent="_ltqTdvM7BBoccv6LRy0-28" vertex="1" connectable="0">
          <mxGeometry x="-0.1857" y="-1" relative="1" as="geometry">
            <mxPoint as="offset" />
          </mxGeometry>
        </mxCell>
        <mxCell id="_ltqTdvM7BBoccv6LRy0-7" value="Adaptive path following" style="rounded=0;whiteSpace=wrap;html=1;" parent="1" vertex="1">
          <mxGeometry x="650" y="60" width="120" height="60" as="geometry" />
        </mxCell>
        <mxCell id="_ltqTdvM7BBoccv6LRy0-30" style="edgeStyle=orthogonalEdgeStyle;rounded=0;orthogonalLoop=1;jettySize=auto;html=1;entryX=0;entryY=0.5;entryDx=0;entryDy=0;" parent="1" source="_ltqTdvM7BBoccv6LRy0-8" target="_ltqTdvM7BBoccv6LRy0-3" edge="1">
          <mxGeometry relative="1" as="geometry" />
        </mxCell>
        <mxCell id="_ltqTdvM7BBoccv6LRy0-36" value="v_L,v_R" style="edgeLabel;html=1;align=center;verticalAlign=middle;resizable=0;points=[];" parent="_ltqTdvM7BBoccv6LRy0-30" vertex="1" connectable="0">
          <mxGeometry x="-0.192" y="1" relative="1" as="geometry">
            <mxPoint as="offset" />
          </mxGeometry>
        </mxCell>
        <mxCell id="_ltqTdvM7BBoccv6LRy0-8" value="Differential drive interface" style="rounded=0;whiteSpace=wrap;html=1;" parent="1" vertex="1">
          <mxGeometry x="820" y="60" width="120" height="60" as="geometry" />
        </mxCell>
        <mxCell id="T7ZtpdBIeFg9yl4TSnz2-2" value="" style="edgeStyle=orthogonalEdgeStyle;rounded=0;orthogonalLoop=1;jettySize=auto;html=1;endArrow=none;endFill=0;" edge="1" parent="1" source="_ltqTdvM7BBoccv6LRy0-13" target="_ltqTdvM7BBoccv6LRy0-43">
          <mxGeometry relative="1" as="geometry" />
        </mxCell>
        <mxCell id="_ltqTdvM7BBoccv6LRy0-13" value="cam_to_imu_tf" style="shape=cylinder3;whiteSpace=wrap;html=1;boundedLbl=1;backgroundOutline=1;size=15;" parent="1" vertex="1">
          <mxGeometry x="350" y="270" width="100" height="50" as="geometry" />
        </mxCell>
        <mxCell id="_ltqTdvM7BBoccv6LRy0-40" style="edgeStyle=orthogonalEdgeStyle;rounded=0;orthogonalLoop=1;jettySize=auto;html=1;entryX=0;entryY=0.5;entryDx=0;entryDy=0;" parent="1" source="_ltqTdvM7BBoccv6LRy0-43" target="_ltqTdvM7BBoccv6LRy0-4" edge="1">
          <mxGeometry relative="1" as="geometry" />
        </mxCell>
        <mxCell id="T7ZtpdBIeFg9yl4TSnz2-6" style="edgeStyle=orthogonalEdgeStyle;rounded=0;orthogonalLoop=1;jettySize=auto;html=1;endArrow=none;endFill=0;" edge="1" parent="1" source="_ltqTdvM7BBoccv6LRy0-38">
          <mxGeometry relative="1" as="geometry">
            <mxPoint x="400" y="360" as="targetPoint" />
            <Array as="points">
              <mxPoint x="260" y="360" />
            </Array>
          </mxGeometry>
        </mxCell>
        <mxCell id="_ltqTdvM7BBoccv6LRy0-38" value="Time Sync Interface&lt;div&gt;&lt;font style=&quot;font-size: 6px;&quot;&gt;(Also transforms to right camera frame from imu)&lt;/font&gt;&lt;/div&gt;" style="rounded=0;whiteSpace=wrap;html=1;" parent="1" vertex="1">
          <mxGeometry x="220" y="180" width="130" height="60" as="geometry" />
        </mxCell>
        <mxCell id="_ltqTdvM7BBoccv6LRy0-44" value="" style="edgeStyle=orthogonalEdgeStyle;rounded=0;orthogonalLoop=1;jettySize=auto;html=1;entryX=0;entryY=0.5;entryDx=0;entryDy=0;" parent="1" source="_ltqTdvM7BBoccv6LRy0-38" target="_ltqTdvM7BBoccv6LRy0-43" edge="1">
          <mxGeometry relative="1" as="geometry">
            <mxPoint x="350" y="210" as="sourcePoint" />
            <mxPoint x="450" y="210" as="targetPoint" />
          </mxGeometry>
        </mxCell>
        <mxCell id="_ltqTdvM7BBoccv6LRy0-43" value="&lt;font style=&quot;font-size: 7px;&quot;&gt;a,w&lt;/font&gt;&lt;div&gt;&lt;font style=&quot;font-size: 7px;&quot;&gt;left_image,right_image&lt;/font&gt;&lt;/div&gt;&lt;div&gt;&lt;font style=&quot;font-size: 7px;&quot;&gt;v_L,v_R&lt;/font&gt;&lt;/div&gt;" style="text;html=1;align=center;verticalAlign=middle;resizable=0;points=[];autosize=0;strokeColor=none;fillColor=none;fontFamily=Helvetica;fontSize=11;fontColor=default;labelBackgroundColor=default;" parent="1" vertex="1">
          <mxGeometry x="380" y="197" width="40" height="26" as="geometry" />
        </mxCell>
        <mxCell id="T7ZtpdBIeFg9yl4TSnz2-3" value="everything in imu frame" style="text;html=1;align=center;verticalAlign=middle;resizable=0;points=[];autosize=1;strokeColor=none;fillColor=none;" vertex="1" parent="1">
          <mxGeometry x="330" y="150" width="150" height="30" as="geometry" />
        </mxCell>
      </root>
    </mxGraphModel>
  </diagram>
</mxfile>
